<svg id="Слой_1" data-name="Слой 1" xmlns="http://www.w3.org/2000/svg" viewBox="0 0 416 480"><defs><style>.cls-1{fill:#fff;}</style></defs><path class="cls-1" d="M304,80H208a8,8,0,0,0-8,8v32a8,8,0,0,0,8,8h96a8,8,0,0,0,8-8V88A8,8,0,0,0,304,80Zm-8,32H216V96h80Z" transform="translate(-48 -16)"/><path class="cls-1" d="M456,496a8,8,0,0,0,8-8V24a8,8,0,0,0-8-8H56a8,8,0,0,0-8,8V488a8,8,0,0,0,8,8ZM64,32H448V48H64Zm0,32H448v80H64Zm229.46,96c-5.65,9.2-20.45,16-37.46,16s-31.81-6.8-37.46-16ZM64,160H201.09c5,18.47,27.36,32,54.91,32s49.86-13.53,54.92-32H448V448H64Zm0,304H448v16H64Z" transform="translate(-48 -16)"/><path class="cls-1" d="M352,80H336a8,8,0,0,0,0,16h16a8,8,0,0,0,0-16Z" transform="translate(-48 -16)"/><path class="cls-1" d="M352,112H336a8,8,0,0,0,0,16h16a8,8,0,0,0,0-16Z" transform="translate(-48 -16)"/><path class="cls-1" d="M176,80H160a8,8,0,0,0,0,16h16a8,8,0,0,0,0-16Z" transform="translate(-48 -16)"/><path class="cls-1" d="M176,112H160a8,8,0,0,0,0,16h16a8,8,0,0,0,0-16Z" transform="translate(-48 -16)"/></svg>