<?xml version="1.0"?>
<svg xmlns="http://www.w3.org/2000/svg" xmlns:xlink="http://www.w3.org/1999/xlink" xmlns:svgjs="http://svgjs.com/svgjs" version="1.1" width="512" height="512" x="0" y="0" viewBox="0 0 512 512" style="enable-background:new 0 0 512 512" xml:space="preserve" class=""><g><path xmlns="http://www.w3.org/2000/svg" d="M304,80H208a8,8,0,0,0-8,8v32a8,8,0,0,0,8,8h96a8,8,0,0,0,8-8V88A8,8,0,0,0,304,80Zm-8,32H216V96h80Z" fill="#2e75ef" data-original="#000000" style="" class=""/><path xmlns="http://www.w3.org/2000/svg" d="M456,496a8,8,0,0,0,8-8V24a8,8,0,0,0-8-8H56a8,8,0,0,0-8,8V488a8,8,0,0,0,8,8ZM64,32H448V48H64Zm0,32H448v80H64Zm229.455,96c-5.648,9.2-20.445,16-37.455,16s-31.807-6.8-37.455-16ZM64,160H201.085c5.056,18.469,27.364,32,54.915,32s49.859-13.531,54.915-32H448V448H64Zm0,304H448v16H64Z" fill="#2e75ef" data-original="#000000" style="" class=""/><path xmlns="http://www.w3.org/2000/svg" d="M352,80H336a8,8,0,0,0,0,16h16a8,8,0,0,0,0-16Z" fill="#2e75ef" data-original="#000000" style="" class=""/><path xmlns="http://www.w3.org/2000/svg" d="M352,112H336a8,8,0,0,0,0,16h16a8,8,0,0,0,0-16Z" fill="#2e75ef" data-original="#000000" style="" class=""/><path xmlns="http://www.w3.org/2000/svg" d="M176,80H160a8,8,0,0,0,0,16h16a8,8,0,0,0,0-16Z" fill="#2e75ef" data-original="#000000" style="" class=""/><path xmlns="http://www.w3.org/2000/svg" d="M176,112H160a8,8,0,0,0,0,16h16a8,8,0,0,0,0-16Z" fill="#2e75ef" data-original="#000000" style="" class=""/></g></svg>
