<svg id="Слой_1" data-name="Слой 1" xmlns="http://www.w3.org/2000/svg" viewBox="0 0 437.56 513"><defs><style>.cls-1,.cls-3{fill:#fff;}.cls-1,.cls-2,.cls-3{stroke:#fff;stroke-miterlimit:10;}.cls-2{fill:none;stroke-width:15px;}.cls-3{stroke-linecap:round;stroke-width:8px;}</style></defs><path class="cls-1" d="M168.25,36.63A31.75,31.75,0,1,0,200,68.38h0a31.74,31.74,0,0,0-31.73-31.75Zm0,48.5A16.75,16.75,0,1,1,185,68.38h0A16.76,16.76,0,0,1,168.25,85.13Z"/><path class="cls-1" d="M82.36,36.63a31.75,31.75,0,1,0,31.75,31.75A31.74,31.74,0,0,0,82.36,36.63Zm0,48.5A16.75,16.75,0,1,1,99.11,68.38h0A16.76,16.76,0,0,1,82.36,85.13Z"/><path class="cls-1" d="M357.72,36.63H271.5a17.12,17.12,0,0,0-17.1,17.09V83a17.12,17.12,0,0,0,17.1,17.1h86.26A17.12,17.12,0,0,0,374.82,83V53.72A17.12,17.12,0,0,0,357.72,36.63Zm2.1,46.4a2.1,2.1,0,0,1-2.1,2.1H271.5a2.1,2.1,0,0,1-2.1-2.1h0V53.72a2.1,2.1,0,0,1,2.1-2.09h86.26a2.1,2.1,0,0,1,2.1,2.09Z"/><path class="cls-1" d="M218.78,154.14a136.61,136.61,0,0,0-84.18,28.68A7.51,7.51,0,0,0,143.43,195l.35-.27a122.74,122.74,0,1,1-20.28,19.73,7.5,7.5,0,0,0-11.41-9.73l-.21.25a138.09,138.09,0,0,0-31,87c0,76,61.84,137.86,137.85,137.86S356.59,368,356.59,292,294.78,154.14,218.78,154.14Z"/><path class="cls-1" d="M437.05,454.28V58.14A57.69,57.69,0,0,0,379.42.5H58.14A57.71,57.71,0,0,0,.5,58.14V454.87A57.7,57.7,0,0,0,58.13,512.5H379.42A57.69,57.69,0,0,0,437,455.72C437.06,455.44,437.06,454.5,437.05,454.28Zm-15-6.91H360a7.5,7.5,0,1,0,0,15h61.43a42.72,42.72,0,0,1-42,35.13H58.14a42.72,42.72,0,0,1-42-35.13h313.8a7.5,7.5,0,0,0,0-15H15.5V136.26H422.05Zm0-326.11H15.5V58.14A42.69,42.69,0,0,1,58.14,15.5H379.42a42.69,42.69,0,0,1,42.63,42.64Z"/><ellipse class="cls-2" cx="218.77" cy="292.29" rx="95.77" ry="95.29"/><path class="cls-3" d="M174.94,358.32s24.11-32,6.45-61.35,6.44-61.35,6.44-61.35"/><path class="cls-3" d="M208.92,358.32s24.11-32,6.44-61.35,6.42-61.35,6.42-61.35"/><path class="cls-3" d="M242.89,358.32s24.11-32,6.45-61.35,6.44-61.35,6.44-61.35"/></svg>