<svg id="Слой_1" data-name="Слой 1" xmlns="http://www.w3.org/2000/svg" viewBox="0 0 436.55 512"><defs><style>.cls-1{fill:#2e75ef;}.cls-2,.cls-3{fill:none;stroke:#2e75ef;stroke-miterlimit:10;}.cls-2{stroke-width:15px;}.cls-3{stroke-linecap:round;stroke-width:8px;}</style></defs><path class="cls-1" d="M205.47,36.13a31.75,31.75,0,1,0,31.75,31.75A31.78,31.78,0,0,0,205.47,36.13Zm0,48.5a16.75,16.75,0,1,1,16.75-16.75A16.77,16.77,0,0,1,205.47,84.63Z" transform="translate(-37.72)"/><path class="cls-1" d="M119.58,36.13a31.75,31.75,0,1,0,31.75,31.75A31.78,31.78,0,0,0,119.58,36.13Zm0,48.5a16.75,16.75,0,1,1,16.75-16.75A16.77,16.77,0,0,1,119.58,84.63Z" transform="translate(-37.72)"/><path class="cls-1" d="M394.94,36.13H308.68a17.12,17.12,0,0,0-17.1,17.09V82.53a17.12,17.12,0,0,0,17.1,17.1h86.26A17.12,17.12,0,0,0,412,82.53V53.22A17.12,17.12,0,0,0,394.94,36.13Zm2.1,46.4a2.1,2.1,0,0,1-2.1,2.1H308.68a2.1,2.1,0,0,1-2.1-2.1V53.22a2.1,2.1,0,0,1,2.1-2.09h86.26a2.1,2.1,0,0,1,2.1,2.09Z" transform="translate(-37.72)"/><path class="cls-1" d="M256,153.64a136.59,136.59,0,0,0-84.18,28.68A7.5,7.5,0,0,0,181,194.2a121.66,121.66,0,0,1,75-25.56,122.85,122.85,0,1,1-95.28,45.29,7.5,7.5,0,1,0-11.62-9.48,138.1,138.1,0,0,0-31,87c0,76,61.84,137.86,137.85,137.86s137.86-61.84,137.86-137.86S332,153.64,256,153.64Z" transform="translate(-37.72)"/><path class="cls-1" d="M474.27,453.78V57.64A57.7,57.7,0,0,0,416.64,0H95.36A57.71,57.71,0,0,0,37.72,57.64V454.37A57.7,57.7,0,0,0,95.35,512H416.64a57.69,57.69,0,0,0,57.61-56.78C474.28,454.94,474.28,454,474.27,453.78Zm-15-6.91H397.18a7.5,7.5,0,1,0,0,15h61.43a42.71,42.71,0,0,1-42,35.13H95.36a42.72,42.72,0,0,1-42-35.13h313.8a7.5,7.5,0,0,0,0-15H52.72V135.76H459.27Zm0-326.11H52.72V57.64A42.69,42.69,0,0,1,95.36,15H416.64a42.69,42.69,0,0,1,42.63,42.64Z" transform="translate(-37.72)"/><ellipse class="cls-2" cx="218.27" cy="291.79" rx="95.77" ry="95.29"/><path class="cls-3" d="M212.16,357.82s24.11-32,6.45-61.35,6.44-61.35,6.44-61.35" transform="translate(-37.72)"/><path class="cls-3" d="M246.14,357.82s24.11-32,6.44-61.35S259,235.12,259,235.12" transform="translate(-37.72)"/><path class="cls-3" d="M280.11,357.82s24.11-32,6.45-61.35S293,235.12,293,235.12" transform="translate(-37.72)"/></svg>