<svg id="Слой_1" data-name="Слой 1" xmlns="http://www.w3.org/2000/svg" viewBox="0 0 512 328"><defs><style>.cls-1{fill:#0d6efd;}</style></defs><path class="cls-1" d="M504,92H8a8,8,0,0,0-8,8V388a8,8,0,0,0,8,8H32v16a8,8,0,0,0,8,8h80a8,8,0,0,0,8-8V396H384v16a8,8,0,0,0,8,8h80a8,8,0,0,0,8-8V396h24a8,8,0,0,0,8-8V100A8,8,0,0,0,504,92ZM112,404H48v-8h64Zm352,0H400v-8h64Zm32-24H16V108H496Z" transform="translate(0 -92)"/><path class="cls-1" d="M40,364H376a8,8,0,0,0,8-8V132a8,8,0,0,0-8-8H40a8,8,0,0,0-8,8V356A8,8,0,0,0,40,364ZM360,220h8v48h-8ZM48,140H368v64H352a8,8,0,0,0-8,8v64a8,8,0,0,0,8,8h16v64H48Z" transform="translate(0 -92)"/><path class="cls-1" d="M408.2,236h0a8,8,0,1,0,8,8A8,8,0,0,0,408.2,236Z" transform="translate(0 -92)"/><path class="cls-1" d="M440.2,236h0a8,8,0,1,0,8,8A8,8,0,0,0,440.2,236Z" transform="translate(0 -92)"/><path class="cls-1" d="M472.2,236h0a8,8,0,1,0,8,8,8,8,0,0,0-8-8Z" transform="translate(0 -92)"/><path class="cls-1" d="M408.2,268h0a8,8,0,1,0,8,8A8,8,0,0,0,408.2,268Z" transform="translate(0 -92)"/><path class="cls-1" d="M440.2,268h0a8,8,0,1,0,8,8A8,8,0,0,0,440.2,268Z" transform="translate(0 -92)"/><path class="cls-1" d="M472.2,268h0a8,8,0,1,0,8,8,8,8,0,0,0-8-8Z" transform="translate(0 -92)"/><path class="cls-1" d="M408.2,300.1h0a8,8,0,1,0,8,8A8,8,0,0,0,408.2,300.1Z" transform="translate(0 -92)"/><path class="cls-1" d="M440.2,300.1h0a8,8,0,1,0,8,8A8,8,0,0,0,440.2,300.1Z" transform="translate(0 -92)"/><path class="cls-1" d="M472.2,300.1h0a8,8,0,1,0,8,8,8,8,0,0,0-8-8Z" transform="translate(0 -92)"/><path class="cls-1" d="M408,220h64a8,8,0,0,0,8-8V172a8,8,0,0,0-8-8H408a8,8,0,0,0-8,8v40a8,8,0,0,0,8,8Zm8-40h48v24H416Z" transform="translate(0 -92)"/></svg>