<svg id="Слой_1" data-name="Слой 1" xmlns="http://www.w3.org/2000/svg" viewBox="0 0 368.58 513"><defs><style>.cls-1{fill:#fff;stroke:#fff;stroke-miterlimit:10;}</style></defs><path class="cls-1" d="M150.87,115.42a23.15,23.15,0,1,0-23.15-23.15A23.17,23.17,0,0,0,150.87,115.42Zm0-33.32a10.18,10.18,0,1,1-10.18,10.17A10.18,10.18,0,0,1,150.87,82.1Z" transform="translate(-71.71 0.5)"/><path class="cls-1" d="M150.87,178.48c-14.06,0-25.06,8.37-25.06,19.06V330.4c0,10.69,11,19.06,25.06,19.06s25.06-8.37,25.06-19.06V197.54C175.93,186.85,164.92,178.48,150.87,178.48ZM163,330.4c0,2.42-4.82,6.09-12.08,6.09s-12.09-3.67-12.09-6.09V197.54c0-2.42,4.82-6.09,12.09-6.09S163,195.12,163,197.54Z" transform="translate(-71.71 0.5)"/><path class="cls-1" d="M399.63,0H112.36A40.2,40.2,0,0,0,72.21,40.16V435.59a40.19,40.19,0,0,0,40.15,40.15h5a24.61,24.61,0,1,0,43.35,0H351.34a24.61,24.61,0,1,0,43.35,0h4.95a40.19,40.19,0,0,0,40.15-40.15V40.16A40.2,40.2,0,0,0,399.63,0ZM112.36,13H399.63a27.22,27.22,0,0,1,27.19,27.19V148H85.18V40.16A27.22,27.22,0,0,1,112.36,13Zm38.26,474.42A11.64,11.64,0,1,1,139,475.74,11.65,11.65,0,0,1,150.62,487.39Zm234,0A11.64,11.64,0,1,1,373,475.74,11.65,11.65,0,0,1,384.65,487.39Zm15-24.62H112.36a27.21,27.21,0,0,1-27.18-27.18V161H426.82V435.59A27.22,27.22,0,0,1,399.63,462.77Z" transform="translate(-71.71 0.5)"/></svg>