<svg id="Слой_1" data-name="Слой 1" xmlns="http://www.w3.org/2000/svg" viewBox="0 0 511.9 512"><defs><style>.cls-1{fill:#0d6efd;}</style></defs><path class="cls-1" d="M434.5,0H77.5A77.63,77.63,0,0,0,0,77.5V434.4A77.65,77.65,0,0,0,77.5,512H434.4a77.57,77.57,0,0,0,77.5-77.5V77.5A77.48,77.48,0,0,0,434.5,0Zm58.4,434.5a58.47,58.47,0,0,1-58.4,58.4H77.5a58.47,58.47,0,0,1-58.4-58.4V77.5A58.47,58.47,0,0,1,77.5,19.1H434.4a58.47,58.47,0,0,1,58.4,58.4v357ZM239,145.5a9.6,9.6,0,1,1-19.2,0,74.4,74.4,0,0,0-148.8,0c0,64.3,76.3,97.8,123.8,55.5a9.56,9.56,0,1,1,12.7,14.3C148,268.5,52,226.4,52,145.5a93.5,93.5,0,0,1,187,0Zm-128.5,0a35.1,35.1,0,1,0,35.1-35.1A35.15,35.15,0,0,0,110.5,145.5Zm51,0a15.9,15.9,0,1,1-15.9-15.9A15.88,15.88,0,0,1,161.5,145.5Zm174.2,0a35.1,35.1,0,1,0,35.1-35.1A35.15,35.15,0,0,0,335.7,145.5Zm51,0a15.9,15.9,0,1,1-15.9-15.9A15.88,15.88,0,0,1,386.7,145.5Zm54.9-60.9c51.8,60.2,8.8,154.4-70.9,154.4a93.5,93.5,0,0,1,0-187,9.6,9.6,0,1,1,0,19.2,74.4,74.4,0,1,0,0,148.8c63.6,0,97.5-75,56.4-122.8a9.63,9.63,0,0,1,1-13.5A9.51,9.51,0,0,1,441.6,84.6ZM145.5,335.7a35.1,35.1,0,1,0,35.1,35.1A35.15,35.15,0,0,0,145.5,335.7Zm0,51a15.9,15.9,0,1,1,15.9-15.9A15.88,15.88,0,0,1,145.5,386.7Zm66.1,50.1a9.55,9.55,0,0,1-13.5-13.5c46.7-46.7,13.2-126.9-52.6-126.9a74.4,74.4,0,0,0,0,148.8,9.6,9.6,0,0,1,0,19.2C94,464.2,52,422.3,52,370.7a93.55,93.55,0,0,1,93.5-93.5C228.3,277.2,270.4,378.1,211.6,436.8Zm131.5-33.1a20.15,20.15,0,1,0,20.2,20.1A20.27,20.27,0,0,0,343.1,403.7Zm74.4,0a20.2,20.2,0,1,0,20.2,20.2A20.27,20.27,0,0,0,417.5,403.7Zm0-74.4a20.2,20.2,0,1,0,20.2,20.2A20.27,20.27,0,0,0,417.5,329.3Z"/></svg>