<svg id="Слой_1" data-name="Слой 1" xmlns="http://www.w3.org/2000/svg" viewBox="0 0 512 512"><defs><style>.cls-1{fill:#fff;}</style></defs><path class="cls-1" d="M434.46,0H77.54A77.64,77.64,0,0,0,0,77.54V434.46A77.64,77.64,0,0,0,77.54,512H434.46A77.64,77.64,0,0,0,512,434.46V77.54A77.64,77.64,0,0,0,434.46,0Zm58.42,434.46a58.49,58.49,0,0,1-58.42,58.42H77.54a58.49,58.49,0,0,1-58.42-58.42V77.54A58.49,58.49,0,0,1,77.54,19.12H434.46a58.49,58.49,0,0,1,58.42,58.42ZM239,145.53a9.56,9.56,0,1,1-19.12,0,74.36,74.36,0,1,0-148.71,0c0,64.33,76.35,97.84,123.81,55.52a9.56,9.56,0,0,1,12.73,14.27C148,268.52,52.05,226.42,52.05,145.53a93.48,93.48,0,1,1,187,0Zm-128.53,0a35.06,35.06,0,1,0,35.06-35.06A35.09,35.09,0,0,0,110.47,145.53Zm51,0a15.94,15.94,0,1,1-15.93-15.94A16,16,0,0,1,161.46,145.53Zm174.21,0a35.06,35.06,0,1,0,35.05-35.06A35.09,35.09,0,0,0,335.67,145.53Zm51,0a15.94,15.94,0,1,1-15.94-15.94A16,16,0,0,1,386.66,145.53Zm55-60.91C493.4,144.85,450.45,239,370.72,239a93.48,93.48,0,1,1,0-186.95,9.56,9.56,0,0,1,0,19.12,74.36,74.36,0,0,0,0,148.71c63.59,0,97.51-75,56.42-122.79a9.56,9.56,0,0,1,14.5-12.47ZM145.53,335.67a35.06,35.06,0,1,0,35.05,35.05A35.09,35.09,0,0,0,145.53,335.67Zm0,51a15.94,15.94,0,1,1,15.93-15.94A16,16,0,0,1,145.53,386.66Zm66.1,50.16A9.56,9.56,0,0,1,198.1,423.3c46.73-46.73,13.22-126.93-52.57-126.93a74.36,74.36,0,1,0,0,148.71,9.56,9.56,0,1,1,0,19.12,93.48,93.48,0,0,1,0-187C228.29,277.24,270.35,378.1,211.63,436.82ZM343.1,403.65a20.19,20.19,0,1,0,20.19,20.18A20.2,20.2,0,0,0,343.1,403.65Zm74.36,0a20.19,20.19,0,1,0,20.18,20.18A20.2,20.2,0,0,0,417.46,403.65Zm0-74.36a20.19,20.19,0,1,0,20.18,20.19A20.21,20.21,0,0,0,417.46,329.29Z"/></svg>