<svg id="Слой_1" data-name="Слой 1" xmlns="http://www.w3.org/2000/svg" viewBox="0 0 436.55 512"><defs><style>.cls-1{fill:#fff;}</style></defs><path class="cls-1" d="M205.47,36.13a31.75,31.75,0,1,0,31.75,31.75A31.78,31.78,0,0,0,205.47,36.13Zm0,48.5a16.75,16.75,0,1,1,16.75-16.75A16.77,16.77,0,0,1,205.47,84.63Z" transform="translate(-37.72)"/><path class="cls-1" d="M119.58,36.13a31.75,31.75,0,1,0,31.75,31.75A31.78,31.78,0,0,0,119.58,36.13Zm0,48.5a16.75,16.75,0,1,1,16.75-16.75A16.77,16.77,0,0,1,119.58,84.63Z" transform="translate(-37.72)"/><path class="cls-1" d="M394.94,36.13H308.68a17.12,17.12,0,0,0-17.1,17.09V82.53a17.12,17.12,0,0,0,17.1,17.1h86.26A17.12,17.12,0,0,0,412,82.53V53.22A17.12,17.12,0,0,0,394.94,36.13Zm2.1,46.4a2.1,2.1,0,0,1-2.1,2.1H308.68a2.1,2.1,0,0,1-2.1-2.1V53.22a2.1,2.1,0,0,1,2.1-2.09h86.26a2.1,2.1,0,0,1,2.1,2.09Z" transform="translate(-37.72)"/><path class="cls-1" d="M256,153.64a136.59,136.59,0,0,0-84.18,28.68A7.5,7.5,0,0,0,181,194.2a121.66,121.66,0,0,1,75-25.56,122.85,122.85,0,1,1-95.28,45.29,7.5,7.5,0,1,0-11.62-9.48,138.1,138.1,0,0,0-31,87c0,76,61.84,137.86,137.85,137.86s137.86-61.84,137.86-137.86S332,153.64,256,153.64Z" transform="translate(-37.72)"/><path class="cls-1" d="M474.27,453.78V57.64A57.7,57.7,0,0,0,416.64,0H95.36A57.71,57.71,0,0,0,37.72,57.64V454.37A57.7,57.7,0,0,0,95.35,512H416.64a57.69,57.69,0,0,0,57.61-56.78C474.28,454.94,474.28,454,474.27,453.78Zm-15-6.91H397.18a7.5,7.5,0,1,0,0,15h61.43a42.71,42.71,0,0,1-42,35.13H95.36a42.72,42.72,0,0,1-42-35.13h313.8a7.5,7.5,0,0,0,0-15H52.72V135.76H459.27Zm0-326.11H52.72V57.64A42.69,42.69,0,0,1,95.36,15H416.64a42.69,42.69,0,0,1,42.63,42.64Z" transform="translate(-37.72)"/><path class="cls-1" d="M256,188.5A103,103,0,0,0,154.07,306.35h0a103,103,0,0,0,203.85,0v0A103,103,0,0,0,256,188.5Zm57.84,169.31A88,88,0,0,1,169.7,308.76l4.62-3.15a23.26,23.26,0,0,1,25.92,0,38.38,38.38,0,0,0,42.79,0,23.3,23.3,0,0,1,25.92,0,38.39,38.39,0,0,0,42.8,0,23.21,23.21,0,0,1,25.92,0l4.62,3.15A88,88,0,0,1,313.84,357.81ZM344,291.86l-.16-.09a39.22,39.22,0,0,0-13-4.65,37.36,37.36,0,0,0-17.32,1.17,37.93,37.93,0,0,0-10.19,4.92,23.28,23.28,0,0,1-25.92,0,38,38,0,0,0-42.79,0,23.24,23.24,0,0,1-25.92,0,38,38,0,0,0-40.51-1.44l-.17.09v-.37a88,88,0,0,1,176,0Z" transform="translate(-37.72)"/></svg>