<svg id="Слой_1" data-name="Слой 1" xmlns="http://www.w3.org/2000/svg" viewBox="0 0 62.43 8.4"><defs><style>.cls-1{fill:#2a4b9b;}</style></defs><path class="cls-1" d="M7.12,8.26H4.4L3.23,5.2H2.46V8.26H0v-8H4.18A3.25,3.25,0,0,1,6.33.9a2.18,2.18,0,0,1,.76,1.71,2.53,2.53,0,0,1-.28,1.22,2.37,2.37,0,0,1-1.14.94ZM2.46,3.49h1a1.3,1.3,0,0,0,.75-.2.64.64,0,0,0,.28-.57c0-.51-.32-.76-.94-.76H2.46Z" transform="translate(0 0.02)"/><path class="cls-1" d="M12.69,8.26l-.45-1.58H10.09L9.61,8.26h-2l2.47-8h2.6l2.5,8ZM10.51,4.93h1.3l-.65-2.32Z" transform="translate(0 0.02)"/><path class="cls-1" d="M15.11,5.94l2.27-.41a1.37,1.37,0,0,0,1.48,1c.62,0,.93-.17.93-.49a.46.46,0,0,0-.22-.41,2.27,2.27,0,0,0-.76-.25,5.29,5.29,0,0,1-2.7-1,2.21,2.21,0,0,1-.6-1.53A2.41,2.41,0,0,1,16.37.88,3.63,3.63,0,0,1,18.84.13a3.13,3.13,0,0,1,3.23,2l-2,.61a1.25,1.25,0,0,0-1.28-.8c-.54,0-.8.17-.8.5a.38.38,0,0,0,.18.34,2.09,2.09,0,0,0,.7.24,15.42,15.42,0,0,1,2,.53,2.3,2.3,0,0,1,1,.8,2.26,2.26,0,0,1,.4,1.34,2.33,2.33,0,0,1-1,2,4.11,4.11,0,0,1-2.59.76C16.77,8.38,15.56,7.57,15.11,5.94Z" transform="translate(0 0.02)"/><path class="cls-1" d="M30,.26v8H27.55V5.14H25.68V8.26H23.22v-8h2.46V3.2h1.87V.26Z" transform="translate(0 0.02)"/><path class="cls-1" d="M39.85.11V8.17a.09.09,0,0,1-.1.1H37.92a.11.11,0,0,1-.11-.11v-5c0-.32-4.58-.32-4.58,0v5a.1.1,0,0,1-.1.11H31.32a.1.1,0,0,1-.1-.11V.09A.11.11,0,0,1,31.33,0l3.22.27s.06,0,.08.06l1,1.92a.11.11,0,0,0,.19,0l1-1.92a.11.11,0,0,1,.09-.06L39.74,0A.1.1,0,0,1,39.85.11Z" transform="translate(0 0.02)"/><path class="cls-1" d="M45.89,8.26l-.45-1.58H43.3l-.48,1.58h-2l2.47-8h2.59l2.51,8ZM43.72,4.93H45l-.65-2.32Z" transform="translate(0 0.02)"/><path class="cls-1" d="M56.26,8.26H53.53L52.37,5.2h-.78V8.26H49.14v-8h4.17A3.23,3.23,0,0,1,55.46.9a2.16,2.16,0,0,1,.77,1.71A2.64,2.64,0,0,1,56,3.83a2.37,2.37,0,0,1-1.14.94ZM51.59,3.49h1a1.25,1.25,0,0,0,.74-.2.65.65,0,0,0,.29-.57c0-.51-.32-.76-1-.76H51.59Z" transform="translate(0 0.02)"/><path class="cls-1" d="M60.77,2.17V8.26H58.45V2.17H56.79V.26h5.64V2.17Z" transform="translate(0 0.02)"/><rect class="cls-1" x="32.64" y="5.1" width="5.66" height="0.15"/><circle class="cls-1" cx="33.81" cy="4.63" r="0.19"/><rect class="cls-1" x="33.62" y="5.62" width="0.39" height="2.24" rx="0.16"/></svg>