<svg id="Слой_1" data-name="Слой 1" xmlns="http://www.w3.org/2000/svg" viewBox="0 0 263.15 261.94"><defs><style>.cls-1,.cls-2{fill:none;stroke-linejoin:round;}.cls-1{stroke:#fff;stroke-width:13px;}.cls-2{stroke:#ebc133;stroke-linecap:round;stroke-width:10px;}</style></defs><path class="cls-1" d="M94.83,69.6,53.19,6.5S-4.25,16.61,8.29,69.6s42.88,109.2,165,180.81c0,0,39.64,11.32,58.25,0s25.08-41.67,25.08-41.67l-65.12-40s-26.7,29.53-30.7,27.5S86.36,174,68.16,101.55C68.16,101.55,95.21,78.9,94.83,69.6Z" transform="translate(0)"/><path class="cls-2" d="M143,93.46s31.55-4.85,29.93,28.72" transform="translate(0)"/><path class="cls-2" d="M145,66.8s51.37-3.27,51.82,53.36" transform="translate(0)"/><path class="cls-2" d="M145,42.9S218.63,36,225.5,120.16" transform="translate(0)"/></svg>