<svg id="Слой_1" data-name="Слой 1" xmlns="http://www.w3.org/2000/svg" viewBox="0 0 263.15 261.94"><defs><style>.cls-1,.cls-2{fill:none;stroke-linejoin:round;}.cls-1{stroke:#0439ab;stroke-width:13px;}.cls-2{stroke:#ebc133;stroke-linecap:round;stroke-width:10px;}</style></defs><path class="cls-1" d="M0-44.2l-41.64-63.1s-57.44,10.11-44.9,63.1S-43.66,65,78.49,136.61c0,0,39.64,11.32,58.25,0s25.08-41.67,25.08-41.67L96.7,54.9S70,84.43,66,82.4-8.47,60.16-26.67-12.25C-26.67-12.25.38-34.9,0-44.2Z" transform="translate(94.83 113.8)"/><path class="cls-2" d="M48.16-20.34S79.71-25.19,78.09,8.38" transform="translate(94.83 113.8)"/><path class="cls-2" d="M50.18-47S101.55-50.27,102,6.36" transform="translate(94.83 113.8)"/><path class="cls-2" d="M50.18-70.9s73.62-6.88,80.49,77.26" transform="translate(94.83 113.8)"/></svg>